<svg xmlns="http://www.w3.org/2000/svg" width="63.835" height="62.239" viewBox="0 0 63.835 62.239"><defs><style>.a{fill:#ff7c00;}.b{fill:#261300;}.c{fill:#fff;}</style></defs><rect class="a" width="63.835" height="62.239" rx="11"/><rect class="b" width="58.515" height="56.919" rx="8" transform="translate(2.66 2.66)"/><path class="c" d="M28.737,39.068,26.97,45.692c0,.177-.088.265-.353.265H23.349c-.177,0-.265-.088-.177-.353L29.443,23.61a6.917,6.917,0,0,0,.177-1.855c0-.177.088-.177.177-.177H34.39c.177,0,.177,0,.265.177L41.721,45.6c0,.177,0,.265-.177.265H37.923c-.177,0-.265,0-.353-.177l-1.855-6.625Zm6.183-3.533c-.618-2.473-2.12-7.773-2.65-10.423h0c-.442,2.562-1.656,6.978-2.562,10.423Zm9.893-12.278a2.3,2.3,0,1,1,4.593,0,2.131,2.131,0,0,1-2.3,2.3A2.228,2.228,0,0,1,44.813,23.257Zm.265,5.035a.232.232,0,0,1,.265-.265h3.445a.232.232,0,0,1,.265.265v17.4c0,.177,0,.265-.265.265H45.343a.232.232,0,0,1-.265-.265Z" transform="translate(-4.752 -2.023)"/></svg>