<svg xmlns="http://www.w3.org/2000/svg" width="63.835" height="62.239" viewBox="0 0 63.835 62.239"><defs><style>.a{fill:#ff3f94;}.b{fill:#2e0013;}.c{fill:#fff;}</style></defs><rect class="a" width="63.835" height="62.239" rx="11"/><rect class="b" width="58.515" height="56.919" rx="8" transform="translate(2.66 2.66)"/><path class="c" d="M50.387,43.439V22.417c0-.09,0-.18-.18-.18H46.524a.191.191,0,0,0-.18.18v5.929H45.176c-5.66,0-9.253,4.222-9.253,9.545,0,6.289,3.593,9.343,8.535,9.343a14.537,14.537,0,0,0,5.929-1.37c.18-.09.18-.09.18-.27A9.495,9.495,0,0,1,50.387,43.439Zm-4.133,0a4.7,4.7,0,0,1-1.617.27c-2.605,0-4.672-1.684-4.672-5.929,0-3.683,2.066-5.929,4.941-5.929a5.435,5.435,0,0,1,1.348.18Zm-14.643-21.2h-3.5a.236.236,0,0,0-.27.27V46.584a.236.236,0,0,0,.27.27h3.414c.27,0,.27-.09.27-.27V22.507C31.858,22.328,31.858,22.238,31.611,22.238Z" transform="translate(-7.326 -3.45)"/></svg>