<svg xmlns="http://www.w3.org/2000/svg" width="63.835" height="62.239" viewBox="0 0 63.835 62.239"><defs><style>.a{fill:#00c8ff;}.b{fill:#001d26;}.c{fill:#fff;}</style></defs><rect class="a" width="63.835" height="62.239" rx="11"/><rect class="b" width="58.515" height="56.919" rx="8" transform="translate(2.66 2.66)"/><path class="c" d="M23.607,22.437c0-.179.357-.268.558-.268,1.428-.089,3.57-.089,5.712-.089,6.136,0,8.568,3.392,8.568,7.765,0,5.712-4.106,8.122-9.193,8.122H27.579v8.568a.234.234,0,0,1-.268.268H23.786a.234.234,0,0,1-.268-.268Zm3.9,11.871H29.3c2.611,0,5.087-.893,5.087-4.463,0-2.856-1.785-4.284-4.73-4.284a13.9,13.9,0,0,0-2.142.089ZM46.7,31.63c-1.785,0-2.321.893-2.321,1.607s.446,1.339,2.789,2.588c3.481,1.673,4.641,3.3,4.641,5.712,0,3.57-2.678,5.534-6.426,5.534a9.483,9.483,0,0,1-4.641-.982c-.179-.089-.179-.179-.179-.357v-3.3c0-.179.089-.268.268-.179A7.938,7.938,0,0,0,45.3,43.59c1.785,0,2.5-.714,2.5-1.673,0-.8-.558-1.517-2.789-2.678-3.124-1.517-4.463-3.035-4.463-5.623,0-2.856,2.231-5.266,6.136-5.266a10.5,10.5,0,0,1,4.016.625.324.324,0,0,1,.179.446v3.035c0,.179-.089.268-.357.179a8.178,8.178,0,0,0-3.793-1Z" transform="translate(-5.879 -3.398)"/></svg>