<svg xmlns="http://www.w3.org/2000/svg" width="63.835" height="62.239" viewBox="0 0 63.835 62.239"><defs><style>.a{fill:#ff26be;}.b{fill:#2e001f;}.c{fill:#fff;}</style></defs><rect class="a" width="63.835" height="62.239" rx="11"/><rect class="b" width="58.515" height="56.919" rx="8" transform="translate(2.66 2.66)"/><path class="c" d="M29.584,34.943,36,47.385c.115.183.046.367-.137.367h-4.01a.447.447,0,0,1-.481-.3q-2.2-4.537-4.491-9.418h-.023c-1.375,3.07-2.864,6.416-4.354,9.44a.441.441,0,0,1-.412.252h-3.8c-.229,0-.252-.183-.137-.321l6.3-12.076L18.379,23.3a.2.2,0,0,1,.16-.344h3.941c.229,0,.344.046.412.252,1.444,3.07,2.887,6.072,4.262,9.143H27.2c1.329-3.025,2.8-6.072,4.193-9.074.115-.183.183-.3.412-.3H35.5c.183,0,.252.137.137.344ZM37.4,38.655c0-5.339,3.437-9.509,9.074-9.509a10.161,10.161,0,0,1,1.192.046V23.234A.229.229,0,0,1,47.892,23h3.689c.183,0,.229.069.229.183V44.131a16.319,16.319,0,0,0,.115,2.246c0,.16,0,.183-.137.252a13.651,13.651,0,0,1-5.866,1.329C40.949,47.958,37.4,44.888,37.4,38.655Zm10.265-5.866a3.145,3.145,0,0,0-1.329-.229c-2.864,0-4.812,2.223-4.812,5.912,0,4.216,1.971,5.912,4.537,5.912a4.325,4.325,0,0,0,1.581-.252V32.789Z" transform="translate(-3.059 -4.692)"/></svg>